<?xml version="1.0" encoding="UTF-8" standalone="no"?>
<svg
   xmlns:osb="http://www.openswatchbook.org/uri/2009/osb"
   xmlns:dc="http://purl.org/dc/elements/1.1/"
   xmlns:cc="http://creativecommons.org/ns#"
   xmlns:rdf="http://www.w3.org/1999/02/22-rdf-syntax-ns#"
   xmlns:svg="http://www.w3.org/2000/svg"
   xmlns="http://www.w3.org/2000/svg"
   xmlns:xlink="http://www.w3.org/1999/xlink"
   xmlns:sodipodi="http://sodipodi.sourceforge.net/DTD/sodipodi-0.dtd"
   xmlns:inkscape="http://www.inkscape.org/namespaces/inkscape"
   width="50mm"
   height="50mm"
   viewBox="0 0 50 50"
   version="1.1"
   id="svg31"
   inkscape:version="1.0.2 (e86c8708, 2021-01-15)"
   sodipodi:docname="TS.svg">
  <defs
     id="defs25">
    <linearGradient
       id="linearGradient993"
       osb:paint="solid">
      <stop
         style="stop-color:#000000;stop-opacity:1;"
         offset="0"
         id="stop991" />
    </linearGradient>
    <linearGradient
       inkscape:collect="always"
       id="linearGradient985">
      <stop
         style="stop-color:#2c89a0;stop-opacity:1;"
         offset="0"
         id="stop981" />
      <stop
         style="stop-color:#2c89a0;stop-opacity:0;"
         offset="1"
         id="stop983" />
    </linearGradient>
    <linearGradient
       inkscape:collect="always"
       xlink:href="#linearGradient985"
       id="linearGradient989"
       x1="78.5327"
       y1="87.483116"
       x2="131.08031"
       y2="87.483116"
       gradientUnits="userSpaceOnUse" />
    <linearGradient
       inkscape:collect="always"
       xlink:href="#linearGradient993"
       id="linearGradient3215"
       gradientUnits="userSpaceOnUse"
       x1="83.30706"
       y1="87.05854"
       x2="129.24461"
       y2="87.05854"
       gradientTransform="scale(0.26458333)" />
    <linearGradient
       inkscape:collect="always"
       xlink:href="#linearGradient985"
       id="linearGradient3267"
       gradientUnits="userSpaceOnUse"
       x1="78.5327"
       y1="87.483116"
       x2="131.08031"
       y2="87.483116" />
  </defs>
  <sodipodi:namedview
     id="base"
     pagecolor="#ffffff"
     bordercolor="#666666"
     borderopacity="1.0"
     inkscape:pageopacity="0.0"
     inkscape:pageshadow="2"
     inkscape:zoom="0.59274803"
     inkscape:cx="-96.210338"
     inkscape:cy="341.22069"
     inkscape:document-units="mm"
     inkscape:current-layer="layer1"
     inkscape:document-rotation="0"
     showgrid="false"
     inkscape:pagecheckerboard="true"
     inkscape:window-width="1792"
     inkscape:window-height="1075"
     inkscape:window-x="0"
     inkscape:window-y="23"
     inkscape:window-maximized="0" />
  <metadata
     id="metadata28">
    <rdf:RDF>
      <cc:Work
         rdf:about="">
        <dc:format>image/svg+xml</dc:format>
        <dc:type
           rdf:resource="http://purl.org/dc/dcmitype/StillImage" />
        <dc:title></dc:title>
      </cc:Work>
    </rdf:RDF>
  </metadata>
  <g
     inkscape:groupmode="layer"
     id="layer2"
     inkscape:label="Background" />
  <g
     inkscape:label="Layer 1"
     inkscape:groupmode="layer"
     id="layer1">
    <text
       xml:space="preserve"
       style="font-style:normal;font-weight:normal;font-size:10.5833px;line-height:1.25;font-family:sans-serif;fill:#000000;fill-opacity:1;stroke:none;stroke-width:0.264583"
       x="30.994047"
       y="51.404758"
       id="text35"><tspan
         id="tspan33"
         x="30.994047"
         y="51.404758"
         style="stroke-width:0.264583"
         sodipodi:role="line" /></text>
    <g
       id="g3265"
       transform="matrix(0.95151804,0,0,0.95151804,-74.725279,-58.241763)">
      <circle
         style="opacity:0.92;fill:url(#linearGradient3267);fill-opacity:1;stroke-width:0.264583"
         id="path147"
         cx="104.8065"
         cy="87.483116"
         r="26.273806" />
      <path
         id="text43"
         style="font-size:50.8px;line-height:1.25;font-family:sans-serif;opacity:1;mix-blend-mode:darken;fill:#000000;fill-opacity:1;stroke-width:0.264583"
         d="m 96.210148,71.203404 -0.456822,1.32085 -1.320847,0.507979 -2.031918,-0.25373 -2.591057,-0.05116 -0.863513,0.254249 -3.403409,-0.609783 -0.965316,-0.05064 -1.117762,0.965316 v -0.152444 c -0.1016,0.3048 -0.152445,0.609356 -0.152445,0.914156 0,0.508 0.677251,1.337786 2.031918,2.489253 l 1.676382,-0.457335 2.6417,0.05116 1.981274,0.660427 0.152445,-0.406694 c 0.677333,0.1016 1.371362,0.152445 2.082562,0.152445 v -0.203089 l 0.406691,0.05064 0.558623,-0.30489 0.762227,-0.05064 -0.101801,0.507979 0.254246,1.473295 -0.254246,1.981274 0.254246,1.066602 v 1.473295 c -0.169333,0.474133 -0.254246,1.032917 -0.254246,1.676384 l 0.203086,0.457335 -0.152445,-0.203605 c 0,0.169334 0.03407,0.338646 0.101804,0.507979 0.06773,0.135467 0.101801,0.237159 0.101801,0.304893 0,0.237066 -0.118467,0.355534 -0.355534,0.355534 0,0.3048 0.03356,0.593095 0.101288,0.864028 -0.270933,0.541867 -0.406178,0.964891 -0.406178,1.269691 -0.169333,0.169333 -0.254248,0.389509 -0.254248,0.660423 0,0.135467 0.06762,0.33885 0.203089,0.609783 -0.06773,0.2032 -0.101286,0.338444 -0.101286,0.406178 0,0.237066 0.135242,0.542139 0.406176,0.914672 l -0.203087,2.082559 c -0.1016,0.237067 -0.152447,0.524849 -0.152447,0.863516 0,0.237066 0.03407,0.609761 0.101803,1.117761 0.0019,0.01273 0.0024,0.02151 0.0041,0.0341 0.0021,0.01037 0.0032,0.0205 0.0036,0.02946 0.06109,0.440751 0.09353,0.796827 0.09353,1.054198 0,0.3048 -0.01677,0.541734 -0.05064,0.711068 0,1.4224 0.440315,2.235411 1.320848,2.438611 l 0.101804,0.05064 c 0.2032,0.06773 0.456911,0.101285 0.761711,0.101285 0.1016,0 0.52514,-0.06762 1.270207,-0.203089 -0.135467,-0.440266 -0.203605,-0.981757 -0.203605,-1.625224 0,-0.2032 0.03407,-0.40658 0.101801,-0.60978 l 0.05064,-0.152447 c 0.03387,-0.06773 0.05116,-0.220269 0.05116,-0.457335 L 98.44561,95.079469 c 0.237067,-0.338667 0.355537,-0.694068 0.355537,-1.066602 v -0.254248 c -0.03387,-0.1016 -0.05064,-0.169223 -0.05064,-0.203089 0.1016,-0.508 0.152445,-0.728157 0.152445,-0.660424 0,-0.135467 -0.0173,-0.220382 -0.05116,-0.254249 l 0.30489,-0.964798 0.152447,-2.133721 -0.203089,-1.117762 0.30489,-0.55862 v -0.406693 l 0.558623,-0.812353 -0.30489,-0.406694 0.30489,-1.473295 -0.406694,-0.558623 c 0.270934,-0.474133 0.406694,-1.405612 0.406694,-2.794145 V 80.0933 l 0.101807,-0.761709 -0.254252,-0.406693 0.152445,-2.387452 h 0.609787 l 0.15193,-0.609783 0.81287,0.203605 c 0.74506,0 1.37199,-0.06814 1.87999,-0.203605 0.64346,-0.169333 1.13411,-0.25373 1.47278,-0.25373 h 0.15244 l 0.40669,0.152445 h 1.82883 c 0.8128,-0.135466 1.38836,-0.271227 1.72703,-0.406693 l 0.20309,-0.05064 0.91467,0.203087 3.20032,-0.253731 0.66043,0.152445 0.86351,-0.152445 h 1.57458 l 1.16841,-0.152445 1.2702,-2.387451 h -2.69234 l -1.11776,-0.152445 -2.5399,0.101285 -1.0666,-0.25373 -0.76223,0.25373 -0.20309,-0.101285 -1.47329,-0.254249 -1.72703,0.203089 h -0.35553 c -0.13547,0 -0.44054,0.03407 -0.91467,0.101801 -0.3048,-0.03387 -0.50819,-0.05064 -0.60979,-0.05064 -0.44026,-0.169334 -0.86329,-0.254249 -1.26969,-0.254249 -0.27093,0 -1.13479,0.13576 -2.59105,0.406694 l -1.47278,-0.35605 -0.711589,0.254246 -0.203089,-0.05064 -0.711068,-0.864032 -0.101801,-0.151929 -0.101285,0.101288 z" />
      <path
         id="text47"
         style="font-size:50.8px;line-height:1.25;font-family:sans-serif;mix-blend-mode:darken;fill:url(#linearGradient3215);fill-opacity:1;stroke-width:0.264583"
         d="m 118.77983,75.786588 -1.37098,0.711067 -0.91467,0.05116 c -0.33867,0.03387 -0.81254,0.0842 -1.42214,0.151929 -0.57573,0.06773 -0.98249,0.101801 -1.21956,0.101801 h -0.30437 c -0.33867,0 -0.60967,0.01678 -0.81287,0.05064 l -0.76223,0.457338 -0.45734,-0.05064 h -0.25373 c -0.7112,0 -1.60861,0.202864 -2.69234,0.609264 h -0.25425 l -0.50798,0.457337 v -0.101285 h -0.30489 c -0.508,0.338667 -0.99864,0.507979 -1.47278,0.507979 -0.13546,0 -0.37292,-0.03407 -0.71158,-0.101804 l -2.59054,1.422136 c -0.23707,0.135466 -0.40638,0.220382 -0.50798,0.254248 -0.1016,0.4064 -0.25414,0.626558 -0.45734,0.660424 l -1.21904,1.422136 -0.25425,2.083077 0.60978,0.812872 0.55862,1.320847 0.86352,0.812872 c 0.33866,0.508 0.88067,0.880179 1.62574,1.117245 l 0.1018,0.101801 c 0.57573,0.4064 1.38823,0.609783 2.43809,0.609783 h 0.35554 l 0.71158,0.812353 h 0.81287 l 0.15193,0.254249 h 1.01647 l 0.66043,0.406177 h 1.01596 l 1.57458,0.762225 0.60978,-0.203086 c 0.3048,0.2032 0.72782,0.355219 1.26969,0.456819 l 0.15245,0.152445 h 1.01596 c 0.27091,-0.06773 0.47431,-0.101285 0.60978,-0.101285 0.4064,0 0.79587,0.135265 1.1684,0.406175 1.15147,0.4064 1.81194,0.609782 1.98128,0.609782 h 0.10128 c 0.2032,0.03387 0.42336,0.05064 0.66043,0.05064 0.4064,0.169334 0.96518,0.287801 1.67638,0.355534 l 0.40669,0.30489 c 2.16747,1.016 3.25097,1.676474 3.25097,1.981274 l -0.40618,0.609783 c -0.3048,0.03387 -0.69427,0.270801 -1.1684,0.711067 -0.6096,0.03387 -1.03314,0.203179 -1.27021,0.507979 h -1.0666 v 0.406178 l -0.50798,0.203089 c -0.13547,-0.06773 -0.25393,-0.101285 -0.35553,-0.101288 -0.16934,0 -0.37272,0.0844 -0.60979,0.253733 h -0.25425 c -0.57573,0 -1.35415,0.152559 -2.33629,0.457335 l -1.93063,-0.203086 -0.55862,0.609779 -1.11776,0.304374 c -0.27093,-0.135442 -0.59278,-0.203086 -0.96532,-0.203086 -0.3048,0 -0.5758,0.06764 -0.81287,0.203086 -0.27093,-0.06771 -0.57549,-0.101285 -0.91415,-0.101285 -0.47414,0 -0.86361,0.03358 -1.16841,0.101285 -0.23707,-0.101576 -0.44045,-0.152445 -0.60978,-0.152445 -0.1016,0 -0.54192,0.118986 -1.32085,0.356053 h -0.81287 l -0.10129,-0.254249 -1.32085,-0.152445 c -0.3048,-0.1016 -0.55902,-0.152447 -0.76222,-0.152445 l -0.45682,0.254246 -0.96532,-0.609782 -2.6417,0.05064 -1.676381,-0.507979 -1.981274,0.101804 -0.609782,-0.660427 -0.456819,-0.25373 v -0.152448 c 0.338667,-0.237042 0.592378,-0.457223 0.761711,-0.660423 0.135467,-0.1016 0.559007,-0.237361 1.270207,-0.406694 0,-1.7272 -0.542007,-2.590538 -1.62574,-2.590538 -0.508,0 -0.897472,0.186087 -1.168406,0.55862 l -0.798917,-0.03307 c 0.01103,0.0369 0.01757,0.07985 0.01757,0.129193 0,0.111316 -0.0053,0.142407 0.01344,0.222208 0.0016,0.0016 0.0034,0.0032 0.0052,0.0047 0.0041,0.0036 1.37e-4,0.0218 -0.0016,0.01654 -0.0026,-0.0095 -0.0016,-0.01296 -0.0036,-0.02119 -0.03014,-0.0268 -0.06089,-0.05363 -0.09405,-0.07596 0.04249,0.08829 0.07484,0.18516 0.148312,0.24753 0.03478,0.02952 0.0029,-0.177593 0.02016,-0.135392 0.06013,0.146619 0.02241,0.175998 -0.06925,0.257347 0.003,0.0087 0.0064,0.01704 0.0088,0.02585 2.64e-4,0.0013 -0.003,-1.93e-4 -0.0041,0.0011 -0.0047,0.0048 -0.0191,0.02896 -0.03256,0.031 -0.0011,1.8e-4 -0.0024,-1.59e-4 -0.0036,0 0.02008,0.0076 0.03354,0.01035 0.05478,0.01913 0.01032,0.0042 -0.0011,0.02196 -0.0016,0.03307 -0.0016,0.03135 -0.0016,0.06265 -0.0016,0.09405 -1.22e-4,0.06487 0.0013,0.12995 5.29e-4,0.19482 -2.46e-4,0.03381 1.1e-5,0.07025 0,0.105418 -1.8e-5,0.06775 0.0024,0.05185 -0.06925,0.168466 -1.54e-4,2.64e-4 -7.94e-4,7.93e-4 -0.0011,0.0011 -0.0078,0.02906 -0.0154,0.05829 -0.02326,0.08733 -0.0094,0.02061 -0.0177,0.04435 -0.02687,0.07286 0.0044,0.02043 0.0051,0.03914 0.0067,0.07648 -0.0072,0.05173 -0.0049,0.102978 -0.0041,0.15503 5.29e-4,0.07628 -1.72e-4,0.152646 -5.29e-4,0.228925 0.0073,0.0037 0.03961,0.0177 0.04082,0.0186 0.01371,0.01035 0.0117,0.137978 -0.0011,0.161748 -5.29e-4,0.0011 -0.0016,0.0021 -0.0021,0.0031 0.0028,0.02823 0.0026,0.09007 0.0026,0.106455 -7.94e-4,0.06756 -5.29e-4,0.135527 -5.29e-4,0.203086 -5e-5,0.08674 -5e-6,0.173194 0,0.259935 0.0021,0.191434 5.29e-4,0.173783 -0.09095,0.308506 0.005,0.02474 0.01069,0.0535 0.01188,0.06046 0.01426,0.145968 -0.0052,0.292799 0,0.438732 0.0011,0.09344 7.94e-4,0.186645 5.29e-4,0.280085 -5e-6,0.0026 8e-6,0.0052 0,0.0078 0.01413,0.01169 0.02708,0.01749 0.04134,0.03152 0.01474,0.01453 0.0072,0.107434 0.0036,0.147278 0.01217,0.01416 0.0254,0.02764 0.03617,0.04289 0.06623,0.09373 0.05792,0.22201 0.03153,0.326597 -0.0109,0.02143 -0.01738,0.04594 -0.03256,0.06459 -0.0361,0.04433 -0.04894,0.05457 -0.06046,0.05994 -0.01527,0.101767 0.01286,-0.05784 -0.07441,0.16278 -0.003,0.0077 0.02043,0.0057 0.02066,0.01394 7.94e-4,0.02693 -0.0145,0.05186 -0.0181,0.07855 -0.003,0.02257 -0.0013,0.04545 -0.0021,0.06821 0.01659,0.04096 0.02058,0.177625 0.01498,0.268716 -0.0033,0.09833 -2.22e-4,0.196744 0,0.295071 8e-6,0.0099 -10e-6,0.02117 0,0.03153 1.6e-5,0.02035 5.3e-5,0.04037 0,0.06201 0.0027,0.0059 0.0042,0.01746 0.0067,0.02429 0.0084,-0.01254 0.01437,-0.0195 0.03152,-0.04754 0.0092,-0.01511 0.02426,0.02564 0.03721,0.03772 0.0084,0.0078 0.0168,0.01556 0.02532,0.02326 0.01294,-0.03658 0.02577,-0.05357 0.04237,-0.01241 0.01225,0.03037 0.0117,0.04522 0.01344,0.06253 -0.0016,-0.0041 0.01738,0.0083 0.02223,0.01603 0.0057,0.0092 0.0051,0.007 0.0098,0.01447 0.01987,0.02069 0.0382,0.0431 0.06098,0.06046 0.0296,0.02257 0.06455,0.03798 0.09663,0.05685 -0.0035,0.02143 -0.0086,0.04273 -0.01291,0.06408 0.01463,0.01471 0.03829,0.04036 0.08165,0.08372 0.03943,0.03943 0.07891,0.07891 0.118338,0.118337 0.130834,0.130741 0.134487,0.260141 0.07545,0.332801 l 0.481624,0.10697 1.981274,1.32085 c 0.539049,-0.0539 0.827111,-0.0862 0.872816,-0.0972 l 0.193786,0.0972 c 0.237066,0.23706 1.066851,0.37231 2.489251,0.40617 l 0.50798,0.45734 0.96531,-0.35553 c 0.508,0.3048 0.99917,0.45733 1.4733,0.45733 0.4064,0 0.7618,-0.0676 1.0666,-0.20309 l 0.96532,0.15193 2.94659,0.10181 2.08256,0.15244 0.25425,0.0506 c 0.44026,-0.13546 1.04989,-0.20308 1.82883,-0.20308 l -0.15245,-0.15245 0.55862,-0.25373 1.16841,0.0506 1.01596,-0.1018 0.71106,-0.25373 h 0.4067 c 0.16932,0.0339 0.28781,0.0506 0.35553,0.0506 0.33867,0 0.76221,-0.0336 1.27021,-0.10128 l 0.76171,-0.10181 0.30489,-0.0506 0.96531,0.20309 0.91416,-0.76223 0.91467,0.0512 c 0.57574,-0.2032 0.982,-0.42336 1.21905,-0.66042 0.57573,-0.0339 1.16859,-0.25403 1.77819,-0.660429 0.3048,-0.03387 0.59258,-0.169627 0.86351,-0.406694 0.77893,-0.4064 1.43941,-0.965184 1.98127,-1.676384 0.44027,-0.575734 0.66043,-1.066895 0.66043,-1.473295 v -0.355534 c -0.0339,-0.135467 -0.0512,-0.237157 -0.0512,-0.30489 0,-0.982134 -0.18609,-1.727007 -0.55862,-2.235007 -0.33867,-0.541867 -1.08406,-1.16827 -2.23553,-1.87947 l -0.60926,-0.812872 -1.52394,-0.152445 -1.47329,-1.015957 h -0.86352 l -0.45733,-0.203089 -0.60979,0.152445 c -0.74506,-0.541867 -1.42231,-0.812872 -2.03191,-0.812872 -0.3048,0.03387 -0.47412,0.05064 -0.50798,0.05064 -0.44026,-0.169333 -0.94821,-0.25373 -1.52394,-0.25373 h -0.35553 l -0.71107,-0.559141 h -0.71159 l -0.20308,-0.101285 -1.21905,-0.05116 -0.35553,0.355534 -1.01596,-0.609264 h -0.10181 l -0.15244,-0.152445 c -0.33866,-0.338667 -0.99914,-0.609672 -1.98128,-0.812872 l -0.40617,0.152445 -1.3715,-0.812869 -0.76222,-0.05064 -1.57458,-0.559139 -0.81287,-0.507979 -0.50798,-0.152445 -0.55914,-0.558623 -0.10129,-0.304892 1.0666,-0.711068 0.3049,-0.457335 h 0.50797 l 1.11777,-0.711068 0.60926,0.152445 2.6417,-0.711067 1.42265,-0.660424 0.71107,0.30489 c 0.0339,0 0.10149,-0.0173 0.20309,-0.05116 0.13546,-0.06773 0.25393,-0.135356 0.35553,-0.203089 l 0.1018,-0.05064 c 0.67734,-0.338667 1.50713,-0.542049 2.48926,-0.609783 l 1.57458,0.355534 1.32085,-0.203089 1.21905,0.863513 0.45733,-0.507979 0.81287,-0.101285 0.50798,0.558623 h 1.11776 c 0.13547,0.03387 0.32156,0.101486 0.55862,0.203086 0.27094,0.1016 0.45703,0.169222 0.55863,0.203089 l 0.40669,0.609782 c 1.86267,-0.237066 2.79415,-0.931611 2.79414,-2.083077 1e-5,-1.354667 -0.8974,-2.252076 -2.69234,-2.692342 -0.54186,-0.338667 -1.21963,-0.507979 -2.03243,-0.507979 h -0.35532 c -0.54187,-0.2032 -0.91405,-0.304374 -1.11725,-0.304374 h -1.11776 c -0.33841,-0.439939 -0.5582,-0.694267 -0.65991,-0.762228 z M 94.930123,99.469897 c -0.008,0.02267 -0.01643,0.053 -0.02585,0.08785 0.0547,0.02093 0.08766,0.01627 0.08217,-0.03669 -9.5e-5,-8.7e-5 -5.29e-4,8.5e-5 -5.29e-4,0 -0.01865,-0.01704 -0.03705,-0.03422 -0.05581,-0.05116 z m 0.04341,-4.776455 c -0.0075,-0.0028 -0.01333,-0.004 -0.02066,-0.0067 -0.0039,0.0037 -0.0048,0.0044 -0.0088,0.0083 0.0098,-5.29e-4 0.01984,8e-6 0.02946,-0.0016 z m -0.02066,-0.0067 c 0.02336,-0.0226 0.03477,-0.0357 0.05219,-0.05116 -0.0051,-0.015 -0.0099,-0.02994 -0.01498,-0.04496 -0.01429,1.8e-4 -0.01569,-1.24e-4 -0.02894,0 -0.01884,0.01159 -0.0366,0.01963 -0.05374,0.02585 9.3e-5,0.01857 2.65e-4,0.03714 0,0.05581 0.01942,0.0065 0.02432,0.0068 0.04547,0.01447 z m -0.347781,-0.711068 c 0.0019,0.0047 0.0024,0.01058 0.0041,0.0155 0.0019,-0.0061 0.0057,-0.0093 0.0078,-0.01497 z m 0.314193,0.356053 c 0.01442,-0.0069 -0.03208,1.53e-4 -0.04806,5.29e-4 -0.0055,0.0074 -0.01098,0.01484 -0.01654,0.02223 0.02175,-0.0071 0.04406,-0.01291 0.0646,-0.02273 z m -0.01138,0.258897 c 3.5e-5,0.0033 -2.6e-5,0.0066 0,0.0098 0.0073,-0.0036 0.01302,-0.0063 0.02016,-0.0098 -0.0084,4.8e-5 -0.01368,6e-6 -0.02016,0 z m 0.06873,0.640271 c -0.0057,0.02058 -0.01098,0.04138 -0.01654,0.06201 l 5.29e-4,-5.29e-4 c 0.01077,-0.01828 0.02175,-0.08195 0.01601,-0.0615 z m -0.437184,0.308509 c -0.0021,0.01072 -0.005,0.02971 -0.0067,0.03721 0.0032,0.006 0.0021,0.0079 0.01138,0.02376 0.0027,0.0046 0.01122,0.01709 0.01035,0.01188 -0.0082,-0.04916 -0.0088,-0.04527 -0.01498,-0.07286 z m -0.02376,0.08527 c -0.0011,0.0016 -0.0021,0.0039 -0.0031,0.0057 0.0011,2.65e-4 0.0021,1.69e-4 0.0031,5.29e-4 4.3e-5,-0.0021 -2.1e-5,-0.0041 0,-0.0062 z m 0.155546,0.462503 v 0.02479 c 0.02003,0.0028 0.03841,0.0072 0.05994,0.0088 -0.02019,-0.0108 -0.03988,-0.02257 -0.05994,-0.03359 z m 0.269751,0.03204 c -0.02413,0.04191 -0.05688,0.07855 -0.08527,0.117821 0.0282,-0.03804 0.05655,-0.07617 0.08475,-0.114204 1.69e-4,-0.0013 5.29e-4,-0.0019 5.29e-4,-0.0036 z m -0.09302,0.885216 c -0.0095,0.01416 -0.0071,0.01101 -0.0186,0.02894 0.056,-0.01786 -0.01021,-0.0024 0.0098,0.01757 0.006,0.0059 0.01143,-0.01341 0.01241,-0.0217 7.94e-4,-0.0078 -0.0016,-0.01635 -0.0036,-0.02479 z m -1.214914,0.391708 c 0.0011,0.008 0.0013,0.01701 0.0021,0.02429 0.0028,0.0016 0.0054,0.0026 0.0083,0.0041 -1.38e-4,-0.0095 -1.98e-4,-0.01894 -5.29e-4,-0.02842 -0.0035,-1.64e-4 -0.0062,1.98e-4 -0.0098,0 z m 1.20613,0.472839 c 0.01963,0.02492 0.04042,0.0491 0.06149,0.07286 -7.9e-5,-0.0016 -5.29e-4,-0.0031 -5.29e-4,-0.0047 -0.02021,-0.02265 -0.07977,-0.09205 -0.06098,-0.06821 z m 0.0083,0.604097 c -0.0013,0.0011 -0.0011,5.29e-4 -0.0026,0.0016 -0.0034,0.0024 -0.0086,0.01434 -0.0062,0.01085 0.0029,-0.0042 0.0059,-0.0083 0.0088,-0.01241 z M 94.07074,99.34587 c -2.64e-4,1.64e-4 2.65e-4,0.01746 -0.0021,0.03411 0.0032,-0.0043 0.0046,-0.0065 0.0067,-0.0098 -0.0034,-0.0176 -0.0045,-0.02439 -0.0047,-0.02429 z m 0.0093,0.02842 c -0.005,0.0035 -0.0061,0.0067 -0.01188,0.01035 -0.0024,0.01288 -0.0064,0.02469 -0.01757,0.02635 -0.0094,0.0013 -0.019,-2.1e-5 -0.02842,0.0011 0.01971,0.02209 0.03789,0.04785 0.05787,0.06925 z m 1.073838,0.400492 c -0.0057,0.02706 -0.01093,0.054 -0.01603,0.08113 0.01106,0.0064 0.02037,0.01169 0.02894,0.01654 -0.0026,-0.03948 -0.0076,-0.07294 -0.01291,-0.09767 z" />
    </g>
  </g>
</svg>
